<?xml version="1.0" encoding="UTF-8" standalone="no"?>
<!-- Generator: Adobe Illustrator 16.0.0, SVG Export Plug-In . SVG Version: 6.00 Build 0)  -->

<svg
   xmlns:dc="http://purl.org/dc/elements/1.1/"
   xmlns:cc="http://creativecommons.org/ns#"
   xmlns:rdf="http://www.w3.org/1999/02/22-rdf-syntax-ns#"
   xmlns:svg="http://www.w3.org/2000/svg"
   xmlns="http://www.w3.org/2000/svg"
   xmlns:sodipodi="http://sodipodi.sourceforge.net/DTD/sodipodi-0.dtd"
   xmlns:inkscape="http://www.inkscape.org/namespaces/inkscape"
   version="1.1"
   id="Layer_1"
   x="0px"
   y="0px"
   width="1000"
   height="997.66302"
   viewBox="0 0 1000 997.66301"
   enable-background="new 0 0 1000 885.989"
   xml:space="preserve"
   inkscape:version="0.92.2 (5c3e80d, 2017-08-06)"
   sodipodi:docname="American Express.svg"><metadata
     id="metadata15"><rdf:RDF><cc:Work
         rdf:about=""><dc:format>image/svg+xml</dc:format><dc:type
           rdf:resource="http://purl.org/dc/dcmitype/StillImage" /><dc:title></dc:title></cc:Work></rdf:RDF></metadata><defs
     id="defs13" /><sodipodi:namedview
     pagecolor="#ffffff"
     bordercolor="#666666"
     borderopacity="1"
     objecttolerance="10"
     gridtolerance="10"
     guidetolerance="10"
     inkscape:pageopacity="0"
     inkscape:pageshadow="2"
     inkscape:window-width="1366"
     inkscape:window-height="705"
     id="namedview11"
     showgrid="false"
     inkscape:zoom="0.53273798"
     inkscape:cx="638.5581"
     inkscape:cy="541.12513"
     inkscape:window-x="-8"
     inkscape:window-y="-8"
     inkscape:window-maximized="1"
     inkscape:current-layer="Layer_1" /><path
     d="M 0,-4.0589843e-4 V 997.66296 H 994.07298 V 668.35679 C 998.04017,662.67078 1000,655.3101 1000,646.40712 c 0,-10.16013 -1.95983,-16.50695 -5.92702,-21.81615 V -4.0589843e-4 Z"
     id="path3"
     inkscape:connector-curvature="0"
     style="fill:#0a7ec2;stroke-width:1.13154304" /><path
     d="m 541.50669,604.95304 c 0,32.41644 -24.17315,39.18307 -48.63598,39.18307 h -34.85152 v 39.20457 h -54.22354 l -34.45549,-38.65464 -35.74544,38.65464 H 222.94452 V 566.40929 h 112.3792 l 34.34685,38.27897 35.52367,-38.27897 h 89.26403 c 22.19069,0 47.04842,6.14994 47.04842,38.54375 m -222.0721,53.99271 H 250.72164 V 635.6948 h 61.34208 v -23.84387 h -61.34208 v -21.19946 h 70.04591 l 30.53355,34.00513 z m 110.73959,13.772 -42.83004,-47.62325 42.83004,-46.08095 z m 63.99668,-52.38252 h -36.15167 v -29.68376 h 36.43908 c 10.11373,0 17.10101,4.03168 17.10101,14.3027 0,10.11373 -6.65574,15.38106 -17.38842,15.38106 m 188.4879,-53.92594 h 93.28441 v 24.24218 h -65.45184 v 21.19946 h 63.81902 v 23.84387 h -63.81902 v 23.25095 l 65.45184,0.10975 v 24.28631 h -93.28441 z m -35.3279,62.56528 c 6.21443,2.26987 11.30751,6.41358 13.68714,9.85008 3.92306,5.75276 4.58388,11.04273 4.62801,21.35335 v 23.16381 H 637.6358 v -14.65348 c 0,-7.03141 0.63819,-17.41105 -4.53975,-22.80964 -4.05432,-4.29874 -10.26989,-5.26734 -20.42775,-5.26734 h -29.95081 v 42.73159 H 554.70841 V 566.40929 h 64.45948 c 14.19294,0 24.50469,0.59632 33.65208,5.57511 8.76946,5.24584 14.27781,12.65178 14.27781,25.95986 0.001,18.60257 -12.4051,28.12224 -19.76692,31.03031 m -16.90073,-14.47923 c -3.67977,2.16012 -8.33155,2.37964 -13.73127,2.37964 h -33.98024 v -26.22351 h 34.46793 c 4.91203,0 9.93835,0.0656 13.24358,2.04809 3.63565,1.9191 5.79577,5.51175 5.79577,10.5573 0,4.95729 -2.16125,9.01274 -5.79577,11.23848 m 252.13155,7.14117 c 5.50835,5.686 8.37455,12.82491 8.37455,24.74798 0,25.21077 -15.73411,36.95732 -43.87785,36.95732 h -54.43174 v -25.10215 h 54.23599 c 5.35446,0 9.03424,-0.68232 11.41387,-2.88656 1.87271,-1.76295 3.30524,-4.36323 3.30524,-7.60284 0,-3.41726 -1.47553,-6.17144 -3.4795,-7.7126 -2.09561,-1.8512 -5.02405,-2.60142 -9.89534,-2.66705 -26.11375,-0.85884 -58.86287,0.81698 -58.86287,-36.20598 0,-16.92562 10.66706,-34.75534 39.95479,-34.75534 h 55.99667 v 24.8815 h -51.1944 c -5.15645,0 -8.44018,0.21952 -11.26112,2.09335 -3.03933,1.91571 -4.16408,4.7604 -4.16408,8.46281 0,4.36097 2.60029,7.38106 6.12731,8.68233 2.90693,1.01387 6.03678,1.32278 10.79831,1.36691 l 15.07215,0.37454 c 15.20568,0.44017 25.54006,3.01895 31.88802,9.36578 m 111.53167,46.72028 c -6.87413,10.02547 -20.09847,14.98502 -37.97232,14.98502 h -53.97008 v -25.10215 h 53.75169 c 5.28996,0 9.03424,-0.68232 11.28261,-2.88656 1.91684,-1.76295 3.37087,-4.36323 3.37087,-7.60284 0,-3.41726 -1.45403,-6.17144 -3.415,-7.7126 -2.09448,-1.8512 -5.00255,-2.60142 -9.82971,-2.66705 -26.22464,-0.85884 -58.95113,0.81698 -58.95113,-36.20598 0,-16.92562 10.75419,-34.75534 40.02041,-34.75534 h 55.71039 v -23.25095 h -51.76583 c -15.64697,0 -26.95222,3.72617 -35.01786,9.54457 v -9.54457 h -76.47081 c -12.16408,0 -26.51205,3.06422 -33.36354,9.54457 l 0.043,-9.54457 H 660.88222 v 9.54457 c -10.86508,-7.75786 -29.15421,-9.54457 -37.70415,-9.54457 h -90.00179 v 9.54457 c -8.6597,-8.30892 -27.70131,-9.54457 -39.35847,-9.54457 H 392.96226 l -23.06311,25.03539 -21.57513,-25.03539 h -150.7023 v 163.16737 h 147.83949 l 23.75675,-25.36466 22.43397,25.36466 91.01679,0.0441 v -38.38872 h 9.01274 c 12.03396,0.17425 26.3559,-0.26592 38.91829,-5.68714 v 44.03173 h 75.14804 v -42.55507 h 3.59264 c 4.64838,0 5.08969,0.26479 5.08969,4.80454 v 37.75053 h 228.26503 c 14.43397,0 29.59664,-3.7239 37.94969,-10.44414 v 10.44414 h 72.45949 c 15.05179,0 29.75053,-2.09448 40.99015,-7.5157 v -30.45322 z m 0,-77.066 h -51.03938 c -5.04669,0 -8.46281,0.21952 -11.21699,2.09335 -2.95106,1.91571 -4.09845,4.7604 -4.09845,8.46281 0,4.36097 2.46903,7.38106 6.14881,8.68233 2.88883,1.01387 6.05941,1.32278 10.75531,1.36691 l 15.09479,0.37454 c 15.25093,0.4413 25.47669,3.02009 31.75675,9.36578 1.01386,0.9256 1.78444,1.98246 2.60029,2.95333 v -33.29905 z"
     id="path5"
     inkscape:connector-curvature="0"
     style="fill:#ffffff;stroke-width:1.13154304" /><path
     d="M 0.01131543,505.12266 H 47.744326 l 10.788131,-26.07075 h 24.07584 l 10.72137,26.07075 h 93.935043 v -19.89932 l 8.41755,19.94345 h 48.72537 l 8.37455,-20.14147 v 20.09734 h 233.43167 l -0.13126,-42.6207 h 4.51712 c 3.21924,0.0453 4.14484,0.44017 4.14484,5.62037 v 37.00033 h 120.6553 v -9.95984 c 9.73919,5.2447 24.94599,9.95984 44.80231,9.95984 h 50.81873 l 10.88544,-26.07075 h 24.13242 l 10.64216,26.07075 h 97.84905 v -24.70385 l 14.80964,24.70385 h 78.36501 V 342.04581 h -77.5718 v 19.30526 L 859.2881,342.04581 h -79.66515 v 19.30526 l -9.93834,-19.30526 H 662.09636 c -18.00398,0 -33.9146,2.4894 -46.69651,9.51967 v -9.51967 h -74.1568 v 9.51967 c -8.2218,-7.24979 -19.30526,-9.51967 -31.58137,-9.51967 H 238.42403 l -18.28008,42.11264 -18.58898,-42.11264 h -85.43942 v 19.30526 l -9.45404,-19.30526 H 33.816163 L 0.01131543,419.50785 Z M 922.84461,482.07199 h -39.60174 l -52.93245,-87.62216 0.0441,87.62216 h -56.92567 l -10.84131,-26.04925 h -58.15679 l -10.42377,26.04925 h -32.72422 c -13.66452,0 -30.85379,-3.02008 -40.48322,-12.8713 -9.96324,-10.0051 -14.96466,-23.3607 -14.96466,-44.69255 0,-17.34316 3.08572,-33.14516 15.07442,-45.61816 9.03424,-9.36465 23.18192,-13.68601 42.42155,-13.68601 h 26.97372 v 25.03539 h -26.37966 c -10.20313,0 -16.04302,1.56379 -21.59776,6.96238 -4.69251,4.93693 -7.99775,14.23708 -7.99775,26.51092 0,12.56239 2.44527,21.46537 7.73523,27.43766 4.22971,4.56125 12.07696,5.99491 19.41501,5.99491 h 12.58276 l 39.33696,-91.94126 h 41.87162 l 47.27021,110.56307 V 365.20397 h 42.62183 l 49.14291,81.3851 V 365.2051 h 28.53865 z m -330.69458,0 H 563.65439 V 365.1836 h 28.49678 v 116.88839 z m -44.71518,-85.28665 c 0,18.46791 -12.42774,28.23086 -19.65603,31.09593 6.10354,2.35813 11.30411,6.39095 13.72787,9.89534 3.96833,5.68487 4.69478,11.04047 4.69478,21.31035 v 22.98503 h -28.16524 l -0.10976,-14.69987 c 0,-6.94089 0.70382,-17.07951 -4.47412,-22.65349 -4.09845,-4.18784 -10.20426,-5.04668 -20.31799,-5.04668 h -30.05944 v 42.40004 H 435.20841 V 365.2051 h 64.29428 c 14.19407,0 24.74911,0.48543 33.80598,5.66451 8.86111,5.20057 14.12618,12.82604 14.12618,25.91573 M 415.7934,482.07199 H 322.46486 V 365.2051 h 93.32854 v 24.4187 h -65.32964 v 20.97994 h 63.75453 v 24.02152 l -63.75453,-0.0668 v 23.33808 h 65.32964 z m -114.11046,0 h -28.61559 l -0.15389,-91.3902 -40.49453,91.3902 h -24.52845 l -40.65861,-91.61085 v 91.61085 H 110.38655 L 99.708175,456.02274 H 41.507261 L 30.71913,482.07199 H 0.32814747 L 50.288034,365.2051 H 91.85074 l 47.50104,110.71696 V 365.2051 h 45.68492 l 36.50471,79.35851 33.62833,-79.35851 h 46.51094 v 116.86689 z m 451.31933,-50.40005 -19.34939,-46.54376 -19.17173,46.54376 z M 510.87469,413.22666 c -3.81216,2.13861 -8.35191,2.37963 -13.8184,2.37963 H 463.07492 V 389.6238 h 34.42494 c 4.91202,0 10.00397,0.15502 13.3307,2.02772 3.59265,1.76295 5.79577,5.3986 5.79577,10.31402 0,5.13381 -2.13749,9.21076 -5.75164,11.26112 M 89.626127,431.67194 70.508708,385.12818 51.45805,431.67194 Z M 510.87469,413.22666 c -3.79067,2.18161 -8.32928,2.37963 -13.77314,2.37963 h -33.9825 V 389.6238 h 34.40117 c 4.91316,0 10.02661,0.17652 13.31034,2.05036 3.61415,1.76294 5.8184,5.37709 5.8184,10.33551 0,5.11118 -2.13636,9.18926 -5.77427,11.21699"
     id="path9"
     inkscape:connector-curvature="0"
     style="fill:#ffffff;stroke-width:1.13154304" /></svg>