<svg width="5" height="6" viewBox="0 0 5 6" fill="none" xmlns="http://www.w3.org/2000/svg">
<path d="M2.06166 0.172369C2.25165 -0.0573547 2.60382 -0.0573547 2.79381 0.172369L3.33509 0.826845C3.40775 0.914703 3.50959 0.973498 3.62201 0.992496L4.45944 1.13402C4.75338 1.1837 4.92947 1.48868 4.82552 1.76808L4.52937 2.56409C4.48961 2.67094 4.48961 2.78853 4.52937 2.89539L4.82552 3.69139C4.92947 3.97079 4.75338 4.27578 4.45944 4.32545L3.62201 4.46698C3.50959 4.48597 3.40775 4.54477 3.33509 4.63263L2.79381 5.2871C2.60382 5.51683 2.25165 5.51683 2.06166 5.2871L1.52038 4.63263C1.44772 4.54477 1.34588 4.48597 1.23346 4.46698L0.396028 4.32545C0.102085 4.27578 -0.0739997 3.97079 0.0299511 3.69139L0.326104 2.89539C0.36586 2.78853 0.36586 2.67094 0.326104 2.56409L0.0299511 1.76808C-0.0739997 1.48868 0.102085 1.1837 0.396028 1.13402L1.23346 0.992496C1.34588 0.973498 1.44772 0.914703 1.52038 0.826845L2.06166 0.172369Z" fill="#1D1D1D" fill-opacity="0.9"/>
</svg>
