<svg width="23" height="27" viewBox="0 0 23 27" fill="none" xmlns="http://www.w3.org/2000/svg">
<path d="M18 23.4248V2.5H7C4.79086 2.5 3 4.29086 3 6.5V23.4248C3 24.3933 4.2391 24.7962 4.80874 24.013L6.26339 22.0128C6.64075 21.494 7.4022 21.4597 7.8247 21.9425L9.74742 24.1399C10.1458 24.5952 10.8542 24.5952 11.2526 24.1399L13.1753 21.9425C13.5978 21.4597 14.3592 21.494 14.7366 22.0128L16.1913 24.013C16.7609 24.7962 18 24.3933 18 23.4248Z" fill="#FFD890"/>
<path d="M16 21.9248V1H5C2.79086 1 1 2.79086 1 5V21.9248C1 22.8933 2.2391 23.2962 2.80874 22.513L4.26339 20.5128C4.64075 19.994 5.4022 19.9597 5.8247 20.4425L7.74742 22.6399C8.14583 23.0952 8.85416 23.0952 9.25258 22.6399L11.1753 20.4425C11.5978 19.9597 12.3592 19.994 12.7366 20.5128L14.1913 22.513C14.7609 23.2962 16 22.8933 16 21.9248Z" stroke="black" stroke-width="2"/>
<path d="M16 11C25 12.5 22 1 16 1V11Z" stroke="black" stroke-width="2"/>
<path d="M12.5 7.5H5" stroke="black" stroke-width="2" stroke-linecap="round"/>
<path d="M10.5 11.5H7" stroke="black" stroke-width="2" stroke-linecap="round"/>
</svg>
