<svg width="25" height="24" viewBox="0 0 25 24" fill="none" xmlns="http://www.w3.org/2000/svg">
<path d="M9.46513 2.07296C10.3632 -0.690967 14.2734 -0.690969 15.1715 2.07296L16.0228 4.69303C16.4244 5.9291 17.5763 6.76598 18.8759 6.76598H21.6308C24.537 6.76598 25.7453 10.4848 23.3942 12.193L21.1654 13.8123C20.114 14.5763 19.674 15.9304 20.0756 17.1664L20.9269 19.7865C21.825 22.5504 18.6616 24.8488 16.3104 23.1406L14.0817 21.5213C13.0302 20.7574 11.6064 20.7574 10.5549 21.5213L8.32618 23.1406C5.97504 24.8488 2.8116 22.5504 3.70966 19.7865L4.56097 17.1664C4.96259 15.9304 4.52261 14.5763 3.47115 13.8123L1.24239 12.193C-1.10875 10.4848 0.0995787 6.76598 3.00575 6.76598H5.76065C7.06033 6.76598 8.21219 5.9291 8.61382 4.69303L9.46513 2.07296Z" fill="#D9D9D9"/>
</svg>
